<?xml version="1.0" encoding="UTF-8" standalone="no"?>
<svg
   xmlns:dc="http://purl.org/dc/elements/1.1/"
   xmlns:cc="http://creativecommons.org/ns#"
   xmlns:rdf="http://www.w3.org/1999/02/22-rdf-syntax-ns#"
   xmlns:svg="http://www.w3.org/2000/svg"
   xmlns="http://www.w3.org/2000/svg"
   xmlns:sodipodi="http://sodipodi.sourceforge.net/DTD/sodipodi-0.dtd"
   xmlns:inkscape="http://www.inkscape.org/namespaces/inkscape"
   inkscape:version="1.0 (4035a4fb49, 2020-05-01)"
   sodipodi:docname="Logo2.svg"
   id="svg8"
   version="1.1"
   viewBox="0 0 116.85919 134.93738"
   height="509.99954"
   width="441.67255"
   inkscape:export-filename="C:\Users\rappa\Unity projects\Hexagonal_MineSweeper\Assets\images\IsoscelesTiles\PNG\TileUI.png"
   inkscape:export-xdpi="99.011856"
   inkscape:export-ydpi="99.011856">
  <defs
     id="defs2" />
  <sodipodi:namedview
     fit-margin-bottom="0"
     fit-margin-right="0"
     fit-margin-left="0"
     fit-margin-top="0"
     inkscape:window-maximized="1"
     inkscape:window-y="-9"
     inkscape:window-x="-9"
     inkscape:window-height="1001"
     inkscape:window-width="1920"
     inkscape:snap-intersection-paths="false"
     units="px"
     showgrid="false"
     inkscape:document-rotation="0"
     inkscape:current-layer="layer1"
     inkscape:document-units="px"
     inkscape:cy="314.71099"
     inkscape:cx="73.12389"
     inkscape:zoom="0.98994949"
     inkscape:pageshadow="2"
     inkscape:pageopacity="0"
     borderopacity="1.0"
     bordercolor="#666666"
     pagecolor="#3c3c3c"
     id="base" />
  <metadata
     id="metadata5">
    <rdf:RDF>
      <cc:Work
         rdf:about="">
        <dc:format>image/svg+xml</dc:format>
        <dc:type
           rdf:resource="http://purl.org/dc/dcmitype/StillImage" />
        <dc:title></dc:title>
      </cc:Work>
    </rdf:RDF>
  </metadata>
  <g
     transform="translate(-9.3037241,-5.41952e-5)"
     id="layer1"
     inkscape:groupmode="layer"
     inkscape:label="Layer 1">
    <path
       d="m 124.43642,100.20629 -56.703098,32.73755 -56.703098,-32.73755 0,-65.475097 L 67.733322,1.9936447 124.43642,34.731194 Z"
       inkscape:randomized="0"
       inkscape:rounded="3.46945e-18"
       inkscape:flatsided="true"
       sodipodi:arg2="1.0471976"
       sodipodi:arg1="0.52359878"
       sodipodi:r2="56.703102"
       sodipodi:r1="65.475098"
       sodipodi:cy="67.468742"
       sodipodi:cx="67.733322"
       sodipodi:sides="6"
       id="path2740"
       style="fill:none;stroke:#ffffff;stroke-width:3.453;stroke-miterlimit:4;stroke-dasharray:none;stroke-opacity:1"
       sodipodi:type="star" />
    <g
       style="fill:#ffffff;fill-opacity:1"
       id="g881"
       transform="matrix(0.58486145,0,0,0.58486145,-177.93025,-182.88764)">
      <path
         style="fill:#ffffff;fill-opacity:1"
         id="path877"
         d="m 475.31,377.47 -16.25,27.688 20.688,-24.469 -4.4375,-3.2188 z m -21.406,2.3438 -4.0312,0.28125 3.9688,23.312 0.0625,-23.594 z m -23.312,4.5938 -3.0938,3.5625 21.094,17.531 -18,-21.094 z m 54.07,17.6 -22.625,7.875 23.781,-3.9375 -1.16,-3.94 z m -23.438,13.281 29.062,16.719 2.2188,-5.2188 -31.281,-11.5 z m -3.8125,3.5938 9.3125,22.562 3.8125,-1.7812 -13.125,-20.781 z m -5.5938,0.40625 -8.5312,26.094 4.4688,1.4688 4.0625,-27.562 z" />
      <path
         style="fill:#ffffff;fill-opacity:1"
         id="path879"
         d="m 397.06,384.97 c -2.1752,0.0329 -4.1856,0.43528 -5.9375,1.125 -4.6718,1.8393 -7.3414,4.9323 -8.625,8.0312 -1.4582,3.5204 -1.8389,7.0081 -1.9062,10.969 -2.1537,0.24373 -4.2588,0.61509 -6.3125,1.1562 v 9.25 c -14.258,4.7814 -24.531,18.226 -24.531,34.094 0,19.87 16.099,35.969 35.969,35.969 19.87,0 35.969,-16.099 35.969,-35.969 0,-15.888 -10.276,-29.359 -24.562,-34.125 v -9.2188 c -2.0766,-0.54418 -4.2202,-0.94312 -6.4062,-1.1875 0.0893,-3.1692 0.33944,-5.4548 1.0312,-7.125 -0.01,0.0235 1.1902,-1.8377 3.0312,-2.5625 1.841,-0.72479 4.5575,-1.0854 9.4688,1.625 4.3972,2.4267 12.028,10.476 20.688,16.469 4.3299,2.9964 9.1062,5.552 14.531,6.375 5.425,0.82298 11.445,-0.41669 16.812,-4.3438 4.3584,-4.0937 0.19033,-10.914 -5.875,-8.0625 -3.4976,2.559 -6.2948,3.008 -9.4375,2.5312 -3.1427,-0.47675 -6.6992,-2.1965 -10.344,-4.7188 -7.2892,-5.0444 -14.129,-12.915 -21.531,-17 -3.4441,-1.9007 -6.7636,-2.8915 -9.8125,-3.1875 -0.76224,-0.074 -1.4937,-0.10471 -2.2188,-0.0937 z" />
    </g>
  </g>
</svg>
