<?xml version="1.0" encoding="UTF-8" standalone="no"?>
<svg
   xmlns:dc="http://purl.org/dc/elements/1.1/"
   xmlns:cc="http://creativecommons.org/ns#"
   xmlns:rdf="http://www.w3.org/1999/02/22-rdf-syntax-ns#"
   xmlns:svg="http://www.w3.org/2000/svg"
   xmlns="http://www.w3.org/2000/svg"
   xmlns:sodipodi="http://sodipodi.sourceforge.net/DTD/sodipodi-0.dtd"
   xmlns:inkscape="http://www.inkscape.org/namespaces/inkscape"
   inkscape:export-ydpi="99.011787"
   inkscape:export-xdpi="99.011787"
   inkscape:export-filename="C:\Users\rappa\Unity projects\Hexagonal_MineSweeper\Assets\images\IsoscelesTiles\PNG\TileRevealedFlag.png"
   width="441.67255"
   height="509.99954"
   viewBox="0 0 116.85919 134.93738"
   version="1.1"
   id="svg8"
   sodipodi:docname="TileRevealedFlag.svg"
   inkscape:version="1.0 (4035a4fb49, 2020-05-01)">
  <defs
     id="defs2" />
  <sodipodi:namedview
     id="base"
     pagecolor="#ffffff"
     bordercolor="#666666"
     borderopacity="1.0"
     inkscape:pageopacity="0.0"
     inkscape:pageshadow="2"
     inkscape:zoom="0.98994949"
     inkscape:cx="168.48764"
     inkscape:cy="223.52852"
     inkscape:document-units="px"
     inkscape:current-layer="layer1"
     inkscape:document-rotation="0"
     showgrid="false"
     units="px"
     inkscape:snap-intersection-paths="false"
     inkscape:window-width="1920"
     inkscape:window-height="1001"
     inkscape:window-x="-9"
     inkscape:window-y="-9"
     inkscape:window-maximized="1"
     fit-margin-top="0"
     fit-margin-left="0"
     fit-margin-right="0"
     fit-margin-bottom="0" />
  <metadata
     id="metadata5">
    <rdf:RDF>
      <cc:Work
         rdf:about="">
        <dc:format>image/svg+xml</dc:format>
        <dc:type
           rdf:resource="http://purl.org/dc/dcmitype/StillImage" />
        <dc:title />
      </cc:Work>
    </rdf:RDF>
  </metadata>
  <g
     inkscape:label="Layer 1"
     inkscape:groupmode="layer"
     id="layer1"
     transform="translate(-9.3037241,-5.41952e-5)">
    <path
       sodipodi:type="star"
       style="fill:none;stroke:#000000;stroke-width:3.45307703;stroke-miterlimit:4;stroke-dasharray:none;stroke-opacity:1"
       id="path2740"
       sodipodi:sides="6"
       sodipodi:cx="67.733322"
       sodipodi:cy="67.468742"
       sodipodi:r1="65.475098"
       sodipodi:r2="56.703102"
       sodipodi:arg1="0.52359878"
       sodipodi:arg2="1.0471976"
       inkscape:flatsided="true"
       inkscape:rounded="3.46945e-18"
       inkscape:randomized="0"
       d="m 124.43642,100.20629 -56.703098,32.73755 -56.703098,-32.73755 0,-65.475097 L 67.733322,1.9936447 124.43642,34.731194 Z" />
    <path
       sodipodi:type="star"
       style="fill:#bfbfbf;fill-opacity:1;stroke:#404040;stroke-width:3.43958;stroke-miterlimit:4;stroke-dasharray:none;stroke-opacity:1"
       id="path2744"
       sodipodi:sides="6"
       sodipodi:cx="67.720146"
       sodipodi:cy="67.733337"
       sodipodi:r1="61.798328"
       sodipodi:r2="53.518925"
       sodipodi:arg1="0.52359878"
       sodipodi:arg2="1.0471976"
       inkscape:flatsided="true"
       inkscape:rounded="3.46945e-18"
       inkscape:randomized="0"
       d="M 121.23907,98.632502 67.720146,129.53167 14.201224,98.632501 l 0,-61.798328 53.518922,-30.899164 53.518924,30.899164 z" />
    <path
       d="m 88.193758,38.77567 c -5.535749,0 -10.504307,-1.331005 -13.899872,-3.168687 -3.388,-1.845253 -8.356564,-3.168686 -13.892314,-3.168686 -5.535748,0 -10.496748,2.27631 -13.899873,4.114004 v 34.84043 c 3.395563,-1.845252 8.356563,-4.114002 13.899873,-4.114002 5.53575,0 10.504314,1.331005 13.892314,3.168686 3.395565,1.845251 8.356564,3.168697 13.899872,3.168697 5.535749,0 10.504314,-2.435136 13.899882,-4.280375 V 34.495293 C 98.698072,36.340547 93.729507,38.77567 88.193758,38.77567 Z M 41.359199,32.438297 c -1.709125,0 -3.0855,1.383934 -3.0855,3.085494 v 67.933939 c 0,1.70156 1.383938,3.0855 3.0855,3.0855 1.709125,0 3.0855,-1.38394 3.0855,-3.0855 V 35.523791 c 0,-1.70156 -1.376375,-3.085494 -3.0855,-3.085494 z"
       id="path2966"
       style="stroke-width:3.17499995;fill:#ff0000;fill-opacity:1;stroke:#000000;stroke-opacity:1;stroke-miterlimit:4;stroke-dasharray:none" />
  </g>
</svg>
